<mxfile host="65bd71144e">
    <diagram id="5DCERXd7cLM6GRPOxiRP" name="Page-1">
        <mxGraphModel dx="296" dy="444" grid="1" gridSize="10" guides="1" tooltips="1" connect="1" arrows="1" fold="1" page="1" pageScale="1" pageWidth="1169" pageHeight="827" math="0" shadow="0">
            <root>
                <mxCell id="0"/>
                <mxCell id="1" parent="0"/>
                <mxCell id="QpQXf4_8qpZJ55xaqCUZ-13" value="z" style="rounded=0;whiteSpace=wrap;html=1;dashed=1;fillColor=none;" parent="1" vertex="1">
                    <mxGeometry x="387" y="110" width="130" height="486" as="geometry"/>
                </mxCell>
                <mxCell id="QpQXf4_8qpZJ55xaqCUZ-14" style="edgeStyle=orthogonalEdgeStyle;rounded=0;orthogonalLoop=1;jettySize=auto;html=1;exitX=0.5;exitY=0;exitDx=0;exitDy=0;entryX=0.013;entryY=0.4;entryDx=0;entryDy=0;entryPerimeter=0;" parent="1" source="QpQXf4_8qpZJ55xaqCUZ-1" target="QpQXf4_8qpZJ55xaqCUZ-5" edge="1">
                    <mxGeometry relative="1" as="geometry"/>
                </mxCell>
                <mxCell id="QpQXf4_8qpZJ55xaqCUZ-16" style="edgeStyle=orthogonalEdgeStyle;rounded=0;orthogonalLoop=1;jettySize=auto;html=1;exitX=1;exitY=0.5;exitDx=0;exitDy=0;entryX=0.177;entryY=0.432;entryDx=0;entryDy=0;entryPerimeter=0;" parent="1" source="QpQXf4_8qpZJ55xaqCUZ-1" target="QpQXf4_8qpZJ55xaqCUZ-13" edge="1">
                    <mxGeometry relative="1" as="geometry"/>
                </mxCell>
                <mxCell id="QpQXf4_8qpZJ55xaqCUZ-46" style="edgeStyle=orthogonalEdgeStyle;rounded=0;orthogonalLoop=1;jettySize=auto;html=1;exitX=1;exitY=0.75;exitDx=0;exitDy=0;entryX=0.177;entryY=0.597;entryDx=0;entryDy=0;entryPerimeter=0;" parent="1" source="QpQXf4_8qpZJ55xaqCUZ-1" target="QpQXf4_8qpZJ55xaqCUZ-13" edge="1">
                    <mxGeometry relative="1" as="geometry"/>
                </mxCell>
                <mxCell id="QpQXf4_8qpZJ55xaqCUZ-1" value="Orchestrator" style="whiteSpace=wrap;html=1;aspect=fixed;" parent="1" vertex="1">
                    <mxGeometry x="270" y="320" width="80" height="80" as="geometry"/>
                </mxCell>
                <mxCell id="QpQXf4_8qpZJ55xaqCUZ-2" value="Dashboard" style="whiteSpace=wrap;html=1;aspect=fixed;" parent="1" vertex="1">
                    <mxGeometry x="130" y="320" width="80" height="80" as="geometry"/>
                </mxCell>
                <mxCell id="QpQXf4_8qpZJ55xaqCUZ-4" value="API" style="whiteSpace=wrap;html=1;aspect=fixed;" parent="1" vertex="1">
                    <mxGeometry x="210" y="330" width="60" height="60" as="geometry"/>
                </mxCell>
                <mxCell id="QpQXf4_8qpZJ55xaqCUZ-5" value="Rulebook" style="whiteSpace=wrap;html=1;aspect=fixed;" parent="1" vertex="1">
                    <mxGeometry x="410" y="130" width="80" height="80" as="geometry"/>
                </mxCell>
                <mxCell id="QpQXf4_8qpZJ55xaqCUZ-6" value="Event&lt;br&gt;Log" style="whiteSpace=wrap;html=1;aspect=fixed;" parent="1" vertex="1">
                    <mxGeometry x="410" y="270" width="80" height="80" as="geometry"/>
                </mxCell>
                <mxCell id="QpQXf4_8qpZJ55xaqCUZ-7" value="Artefacts&lt;br&gt;+&lt;br&gt;Metadata" style="whiteSpace=wrap;html=1;aspect=fixed;" parent="1" vertex="1">
                    <mxGeometry x="411" y="374" width="80" height="80" as="geometry"/>
                </mxCell>
                <mxCell id="QpQXf4_8qpZJ55xaqCUZ-8" value="Inbox" style="whiteSpace=wrap;html=1;aspect=fixed;" parent="1" vertex="1">
                    <mxGeometry x="411" y="490" width="80" height="80" as="geometry"/>
                </mxCell>
                <mxCell id="QpQXf4_8qpZJ55xaqCUZ-32" style="edgeStyle=orthogonalEdgeStyle;rounded=0;orthogonalLoop=1;jettySize=auto;html=1;exitX=0.75;exitY=1;exitDx=0;exitDy=0;entryX=0.192;entryY=0.726;entryDx=0;entryDy=0;entryPerimeter=0;" parent="1" source="QpQXf4_8qpZJ55xaqCUZ-1" target="QpQXf4_8qpZJ55xaqCUZ-29" edge="1">
                    <mxGeometry relative="1" as="geometry"/>
                </mxCell>
                <mxCell id="QpQXf4_8qpZJ55xaqCUZ-27" style="edgeStyle=orthogonalEdgeStyle;rounded=0;orthogonalLoop=1;jettySize=auto;html=1;exitX=0.25;exitY=1;exitDx=0;exitDy=0;entryX=0.792;entryY=0.84;entryDx=0;entryDy=0;entryPerimeter=0;" parent="1" source="QpQXf4_8qpZJ55xaqCUZ-10" target="QpQXf4_8qpZJ55xaqCUZ-13" edge="1">
                    <mxGeometry relative="1" as="geometry">
                        <Array as="points">
                            <mxPoint x="740" y="518"/>
                        </Array>
                    </mxGeometry>
                </mxCell>
                <mxCell id="QpQXf4_8qpZJ55xaqCUZ-40" style="edgeStyle=orthogonalEdgeStyle;rounded=0;orthogonalLoop=1;jettySize=auto;html=1;exitX=0.75;exitY=1;exitDx=0;exitDy=0;entryX=0.192;entryY=0.869;entryDx=0;entryDy=0;entryPerimeter=0;" parent="1" source="QpQXf4_8qpZJ55xaqCUZ-10" target="QpQXf4_8qpZJ55xaqCUZ-29" edge="1">
                    <mxGeometry relative="1" as="geometry"/>
                </mxCell>
                <mxCell id="QpQXf4_8qpZJ55xaqCUZ-42" style="edgeStyle=orthogonalEdgeStyle;rounded=0;orthogonalLoop=1;jettySize=auto;html=1;exitX=1;exitY=0.5;exitDx=0;exitDy=0;entryX=0;entryY=0.5;entryDx=0;entryDy=0;" parent="1" source="QpQXf4_8qpZJ55xaqCUZ-10" target="QpQXf4_8qpZJ55xaqCUZ-41" edge="1">
                    <mxGeometry relative="1" as="geometry"/>
                </mxCell>
                <mxCell id="QpQXf4_8qpZJ55xaqCUZ-10" value="Something" style="whiteSpace=wrap;html=1;aspect=fixed;" parent="1" vertex="1">
                    <mxGeometry x="720" y="320" width="80" height="80" as="geometry"/>
                </mxCell>
                <mxCell id="QpQXf4_8qpZJ55xaqCUZ-11" value="Inbox" style="whiteSpace=wrap;html=1;aspect=fixed;" parent="1" vertex="1">
                    <mxGeometry x="840" y="480" width="80" height="80" as="geometry"/>
                </mxCell>
                <mxCell id="QpQXf4_8qpZJ55xaqCUZ-15" value="CRUD" style="text;html=1;align=center;verticalAlign=middle;resizable=0;points=[];autosize=1;strokeColor=none;" parent="1" vertex="1">
                    <mxGeometry x="325" y="140" width="50" height="20" as="geometry"/>
                </mxCell>
                <mxCell id="QpQXf4_8qpZJ55xaqCUZ-17" value="R" style="text;html=1;align=center;verticalAlign=middle;resizable=0;points=[];autosize=1;strokeColor=none;" parent="1" vertex="1">
                    <mxGeometry x="355" y="300" width="20" height="20" as="geometry"/>
                </mxCell>
                <mxCell id="QpQXf4_8qpZJ55xaqCUZ-19" value="CRUD" style="text;html=1;align=center;verticalAlign=middle;resizable=0;points=[];autosize=1;strokeColor=none;" parent="1" vertex="1">
                    <mxGeometry x="340" y="404" width="50" height="20" as="geometry"/>
                </mxCell>
                <mxCell id="QpQXf4_8qpZJ55xaqCUZ-21" value="CR" style="text;html=1;align=center;verticalAlign=middle;resizable=0;points=[];autosize=1;strokeColor=none;" parent="1" vertex="1">
                    <mxGeometry x="320" y="520" width="30" height="20" as="geometry"/>
                </mxCell>
                <mxCell id="QpQXf4_8qpZJ55xaqCUZ-26" value="Data Pod" style="text;html=1;align=center;verticalAlign=middle;resizable=0;points=[];autosize=1;strokeColor=none;" parent="1" vertex="1">
                    <mxGeometry x="450" y="90" width="70" height="20" as="geometry"/>
                </mxCell>
                <mxCell id="QpQXf4_8qpZJ55xaqCUZ-28" value="C" style="text;html=1;align=center;verticalAlign=middle;resizable=0;points=[];autosize=1;strokeColor=none;" parent="1" vertex="1">
                    <mxGeometry x="564" y="500" width="20" height="20" as="geometry"/>
                </mxCell>
                <mxCell id="QpQXf4_8qpZJ55xaqCUZ-29" value="" style="rounded=0;whiteSpace=wrap;html=1;dashed=1;fillColor=none;" parent="1" vertex="1">
                    <mxGeometry x="815" y="246" width="130" height="350" as="geometry"/>
                </mxCell>
                <mxCell id="QpQXf4_8qpZJ55xaqCUZ-33" value="C" style="text;html=1;align=center;verticalAlign=middle;resizable=0;points=[];autosize=1;strokeColor=none;" parent="1" vertex="1">
                    <mxGeometry x="670" y="480" width="20" height="20" as="geometry"/>
                </mxCell>
                <mxCell id="QpQXf4_8qpZJ55xaqCUZ-36" value="" style="endArrow=classic;startArrow=classic;html=1;" parent="1" edge="1">
                    <mxGeometry width="50" height="50" relative="1" as="geometry">
                        <mxPoint x="140" y="640" as="sourcePoint"/>
                        <mxPoint x="640" y="640" as="targetPoint"/>
                    </mxGeometry>
                </mxCell>
                <mxCell id="QpQXf4_8qpZJ55xaqCUZ-37" value="Researcher Environment" style="text;html=1;align=center;verticalAlign=middle;resizable=0;points=[];autosize=1;strokeColor=none;" parent="1" vertex="1">
                    <mxGeometry x="275" y="620" width="150" height="20" as="geometry"/>
                </mxCell>
                <mxCell id="QpQXf4_8qpZJ55xaqCUZ-38" value="" style="endArrow=classic;startArrow=classic;html=1;" parent="1" edge="1">
                    <mxGeometry width="50" height="50" relative="1" as="geometry">
                        <mxPoint x="720" y="640" as="sourcePoint"/>
                        <mxPoint x="1040" y="640" as="targetPoint"/>
                    </mxGeometry>
                </mxCell>
                <mxCell id="QpQXf4_8qpZJ55xaqCUZ-39" value="Service Hub Environment" style="text;html=1;align=center;verticalAlign=middle;resizable=0;points=[];autosize=1;strokeColor=none;" parent="1" vertex="1">
                    <mxGeometry x="855" y="620" width="150" height="20" as="geometry"/>
                </mxCell>
                <mxCell id="QpQXf4_8qpZJ55xaqCUZ-41" value="" style="whiteSpace=wrap;html=1;aspect=fixed;" parent="1" vertex="1">
                    <mxGeometry x="840" y="320" width="80" height="80" as="geometry"/>
                </mxCell>
                <mxCell id="CfoqS8OD3bM6027uivK8-2" value="" style="endArrow=none;html=1;entryX=0.5;entryY=1;entryDx=0;entryDy=0;" parent="1" target="QpQXf4_8qpZJ55xaqCUZ-1" edge="1">
                    <mxGeometry width="50" height="50" relative="1" as="geometry">
                        <mxPoint x="310" y="520" as="sourcePoint"/>
                        <mxPoint x="470" y="520" as="targetPoint"/>
                    </mxGeometry>
                </mxCell>
                <mxCell id="CfoqS8OD3bM6027uivK8-3" value="" style="endArrow=classic;html=1;" parent="1" edge="1">
                    <mxGeometry width="50" height="50" relative="1" as="geometry">
                        <mxPoint x="310" y="520" as="sourcePoint"/>
                        <mxPoint x="410" y="520" as="targetPoint"/>
                    </mxGeometry>
                </mxCell>
            </root>
        </mxGraphModel>
    </diagram>
</mxfile>